<?xml version="1.0" encoding="utf-8"?>
<!-- Svg Vector Icons : http://www.onlinewebfonts.com/icon -->
<!DOCTYPE svg PUBLIC "-//W3C//DTD SVG 1.1//EN" "http://www.w3.org/Graphics/SVG/1.1/DTD/svg11.dtd">
<svg version="1.1" xmlns="http://www.w3.org/2000/svg" xmlns:xlink="http://www.w3.org/1999/xlink" x="0px" y="0px" viewBox="0 0 1000 1000" enable-background="new 0 0 1000 1000" xml:space="preserve">
<metadata> Svg Vector Icons : http://www.onlinewebfonts.com/icon </metadata>
<g><g transform="translate(0.000000,511.000000) scale(0.100000,-0.100000)"><path d="M4195.5,2178.2c-57.8-60.3-75.4-103.1-90.5-223.8c-25.1-246.4-85.5-530.5-135.7-643.6c-60.3-140.8-153.4-221.2-354.5-309.2C3298,863.4,2832.8,589.3,2133.9,126.7L1797-94.5l-65.4,83c-35.2,45.3-176,198.6-314.3,341.9C1030.2,727.6,726,936.3,374.1,1041.9c-153.4,45.2-188.6,47.8-206.2,20.1c-45.2-70.4-17.6-148.3,203.6-600.9C620.4-51.8,726-335.9,731-514.4c5-105.6-15.1-153.4-173.5-419.9c-269-452.5-377.1-663.7-427.4-822.1c-40.2-133.2-40.2-145.8,0-206.2c60.3-93,125.7-83,362,55.3c480.2,276.6,975.5,688.9,1211.8,1005.6c143.3,193.6,198.6,208.7,495.3,135.8c294.2-72.9,565.7-213.7,724.1-372.1l128.2-130.7l226.3,181l226.3,181l238.8-32.7c128.2-20.1,512.9-40.2,852.3-45.2l616-10.1l329.3-372.1c196.1-221.2,369.6-394.7,432.4-429.9c98.1-55.3,108.1-55.3,181-17.6c251.4,130.7,477.7,548.1,477.7,882.4v103.1l510.4,15.1c837.2,22.6,1407.9,150.8,1684.5,374.6l70.4,57.8l-75.4,118.2L8746-144.8l93,15.1c590.8,93,1061,311.7,1061,492.8c0,85.5-135.8,206.2-341.9,304.2c-274.1,125.7-714,251.4-1367.7,384.7c-1000.6,203.6-1659.3,284.1-2438.7,304.2l-540.5,12.6l-135.8,206.2c-261.5,397.2-510.4,631-714,663.7C4283.5,2251.2,4260.8,2241.1,4195.5,2178.2z M4474.6,1972.1c138.3-88,311.8-299.2,490.2-595.8L5093,1160l588.3-7.5c789.4-7.5,1309.8-70.4,2370.8-279.1c900-178.5,1646.7-397.2,1646.7-485.2c0-45.2-188.6-150.8-382.1-213.7c-176-57.8-374.6-95.5-678.8-128.2l-145.8-15.1v-88c0-57.8,25.1-120.7,67.9-178.5c65.4-85.5,65.4-90.5,20.1-123.2c-218.7-160.9-862.3-264-1661.8-271.5l-482.7-2.5l-10.1-264c-7.5-238.8-15.1-281.6-90.5-432.4c-72.9-148.3-223.8-321.8-279.1-321.8c-12.6,0-150.9,155.9-311.7,346.9c-158.4,188.6-331.9,387.2-387.2,440l-98.1,93l-201.1-27.7c-251.4-35.2-784.4-15.1-1279.7,52.8l-369.6,47.8l-60.3-72.9c-35.2-40.2-108.1-108.1-160.9-150.8l-98-77.9l-118.2,90.5c-357,274-935.2,434.9-1209.3,336.9c-50.3-15.1-133.2-95.5-231.3-223.7c-85.5-110.6-253.9-286.6-374.6-392.2c-251.4-221.2-817.1-605.9-829.7-568.2c-12.6,37.7,35.2,125.7,339.4,641.1l266.5,447.5l-12.6,168.4C897-217.7,811.5-1.5,401.7,818.1c-17.6,37.7,186.1-62.9,357-173.5c206.2-133.2,621-530.5,802-766.8c145.8-191.1,181-203.6,341.9-120.7c52.8,25.1,304.2,183.5,558.1,346.9c641.1,412.3,859.8,540.5,1186.6,696.4c153.4,72.9,311.8,165.9,349.5,206.2c138.3,145.8,253.9,457.5,284.1,774.3c20.1,201.1,35.2,264,57.8,264C4351.3,2045,4411.7,2012.3,4474.6,1972.1z"/><path d="M8009.4,496.3c-32.7-67.9-12.6-123.2,60.4-171c67.9-42.7,171,20.1,171,105.6c0,37.7-12.6,83-30.2,100.6C8155.2,586.8,8042.1,566.7,8009.4,496.3z"/></g></g>
</svg>